<svg width="58" height="58" fill="none" xmlns="http://www.w3.org/2000/svg"><path fill-rule="evenodd" clip-rule="evenodd" d="M19.407 7.78a1.812 1.812 0 010 2.564l-9.594 9.594 9.594 9.593a1.812 1.812 0 11-2.564 2.563L5.968 21.22a1.812 1.812 0 010-2.563L16.843 7.78a1.812 1.812 0 012.564 0z" fill="#000"/><path fill-rule="evenodd" clip-rule="evenodd" d="M5.438 19.938c0-1.002.811-1.813 1.812-1.813h30.813a14.5 14.5 0 010 29H18.125a1.813 1.813 0 010-3.625h19.938a10.875 10.875 0 000-21.75H7.25a1.813 1.813 0 01-1.813-1.813z" fill="#000"/></svg>