<svg width="10" height="10" fill="none" xmlns="http://www.w3.org/2000/svg"><path fill-rule="evenodd" clip-rule="evenodd" d="M.777 4.53l1.877 1.877a2.653 2.653 0 003.754 0c.163-.162.29-.346.403-.535L5.938 5c-.041-.042-.092-.066-.141-.094-.06.206-.166.401-.328.563a1.328 1.328 0 01-1.876 0L1.716 3.593a1.328 1.328 0 011.877-1.877l.667.668a3.33 3.33 0 011.693-.185L4.53.777A2.654 2.654 0 00.777 4.531zM5.74 7.618l.668.668a1.33 1.33 0 001.876 0 1.33 1.33 0 000-1.878L6.408 4.531a1.328 1.328 0 00-1.877 0 1.313 1.313 0 00-.328.562c-.05-.028-.1-.052-.141-.093l-.872-.872c.111-.19.24-.372.403-.535a2.654 2.654 0 013.753 0l1.877 1.876a2.654 2.654 0 01-3.754 3.754L4.047 7.8a3.328 3.328 0 001.693-.184z" fill="#848B94"/></svg>