<svg width="47" height="47" fill="none" xmlns="http://www.w3.org/2000/svg"><path fill-rule="evenodd" clip-rule="evenodd" d="M23.5 7.344c-8.923 0-16.156 7.233-16.156 16.156 0 8.923 7.233 16.156 16.156 16.156 8.923 0 16.156-7.233 16.156-16.156 0-8.923-7.233-16.156-16.156-16.156zM4.406 23.5c0-10.545 8.549-19.094 19.094-19.094 10.545 0 19.094 8.549 19.094 19.094 0 10.545-8.549 19.094-19.094 19.094-10.545 0-19.094-8.549-19.094-19.094z" fill="#000"/><path d="M23.5 25.703a2.203 2.203 0 100-4.406 2.203 2.203 0 000 4.406zM23.5 16.89a2.203 2.203 0 100-4.405 2.203 2.203 0 000 4.406zM23.5 34.516a2.203 2.203 0 100-4.406 2.203 2.203 0 000 4.406z" fill="#000"/></svg>