<svg width="65" height="65" fill="none" xmlns="http://www.w3.org/2000/svg"><path fill-rule="evenodd" clip-rule="evenodd" d="M11.259 7.417a4.031 4.031 0 012.85-1.181h24.188c.535 0 1.047.212 1.425.59l14.11 14.11c.377.378.59.89.59 1.425v32.25a4.031 4.031 0 01-4.031 4.031H14.109a4.031 4.031 0 01-4.03-4.031V10.267a4.03 4.03 0 011.18-2.85zm26.203 2.85H14.109v44.344h36.282V23.196L37.462 10.267z" fill="#fff"/><path fill-rule="evenodd" clip-rule="evenodd" d="M38.297 6.236c1.113 0 2.016.902 2.016 2.015v12.094h12.093a2.016 2.016 0 110 4.032h-14.11a2.016 2.016 0 01-2.015-2.016V8.25c0-1.113.903-2.015 2.016-2.015zM24.188 38.486c0-1.113.902-2.016 2.015-2.016h12.094a2.016 2.016 0 110 4.032H26.203a2.016 2.016 0 01-2.015-2.016z" fill="#fff"/><path fill-rule="evenodd" clip-rule="evenodd" d="M32.25 30.423c1.113 0 2.016.903 2.016 2.016v12.094a2.016 2.016 0 11-4.032 0V32.439c0-1.113.903-2.016 2.016-2.016z" fill="#fff"/></svg>