<svg width="79" height="79" fill="none" xmlns="http://www.w3.org/2000/svg"><path fill-rule="evenodd" clip-rule="evenodd" d="M8.852 16.259a4.937 4.937 0 013.492-1.447h16.458a4.969 4.969 0 012.944.982l.006.004 8.573 6.415a.034.034 0 00.017.006h26.314a4.937 4.937 0 014.938 4.937v34.84a4.66 4.66 0 01-4.66 4.66h-54.59a4.937 4.937 0 01-4.938-4.937V19.75c0-1.31.52-2.565 1.446-3.491zm19.93 3.491H12.345v41.969h54.312V27.156H40.323a4.968 4.968 0 01-2.944-.981l-.006-.005-8.573-6.414a.033.033 0 00-.017-.006z" fill="#000"/><path fill-rule="evenodd" clip-rule="evenodd" d="M29.625 44.438a2.469 2.469 0 012.469-2.47h14.812a2.469 2.469 0 110 4.938H32.094a2.469 2.469 0 01-2.469-2.468z" fill="#000"/><path fill-rule="evenodd" clip-rule="evenodd" d="M39.5 34.563a2.469 2.469 0 012.469 2.468v14.813a2.469 2.469 0 01-4.938 0V37.03a2.469 2.469 0 012.469-2.468z" fill="#000"/></svg>