<svg width="25" height="16" fill="none" xmlns="http://www.w3.org/2000/svg"><path d="M18.84 14.93a.389.389 0 00.314-.46c-.295-1.451-.861-3.532-.861-3.532 0-.558-.748-1.195-2.22-1.566a5.066 5.066 0 01-1.406-.624 1.164 1.164 0 01-.08-.54l-.471-.07c0-.04-.04-.624-.04-.624.566-.186.508-1.282.508-1.282.36.195.595-.672.595-.672.425-1.205-.213-1.132-.213-1.132a7.4 7.4 0 000-2.22c-.283-2.44-4.555-1.779-4.048-.981-1.248-.225-.963 2.546-.963 2.546l.27.717c-.375.237-.301.509-.219.813.034.127.07.26.075.398.027.692.46.548.46.548.026 1.141.603 1.291.603 1.291.108.717.04.593.04.593l-.513.06c.007.164-.006.327-.04.486-.298.13-.48.233-.66.335-.186.105-.37.208-.673.338-1.16.494-2.419 1.14-2.643 2.007-.14.546-.458 2.112-.673 3.194a.395.395 0 00.323.468 37.1 37.1 0 006.006.479 36.81 36.81 0 006.53-.57z" fill="#C6CDD3"/><path d="M24.697 12.588a.396.396 0 00.287-.402L24.9 10.56s-.279-.696-.72-.767a3.523 3.523 0 01-1.248-.399 4.663 4.663 0 00-.8-.358 1.17 1.17 0 01-.323-.446 1.357 1.357 0 00-.558-.401l-.017-.534 1.155-.353s.297-.135.326-.135a2.15 2.15 0 00-.159-.272c-.022-.056-.13-.446-.13-.446.168.21.366.397.588.555a7.922 7.922 0 01-.503-1.113 6.923 6.923 0 01-.193-1.079 15.674 15.674 0 00-.37-2.006 1.887 1.887 0 00-.61-.84 2.875 2.875 0 00-1.397-.484h-.058a2.872 2.872 0 00-1.397.484c-.28.221-.491.512-.61.84-.167.66-.29 1.33-.37 2.006-.03.372-.092.74-.183 1.103-.139.376-.31.74-.512 1.089.22-.16.417-.347.584-.557 0 0-.14.427-.162.485-.05.073-.093.152-.127.234.028 0 .326.135.326.135l1.154.354-.016.534c-.22.085-.412.224-.558.401a1.876 1.876 0 01-.204.337c1.052.416 1.667 1.026 1.692 1.708.005.034.06.242.138.532.194.725.526 1.968.553 2.328h.095a34.914 34.914 0 004.41-.907zM4.814 13.491h-.419a35.702 35.702 0 01-4.086-.815.396.396 0 01-.293-.404l.089-1.715s.278-.696.72-.767c.44-.055.863-.19 1.247-.399.254-.144.523-.264.801-.358.143-.123.253-.275.323-.446.146-.178.338-.317.558-.402l.016-.534L2.616 7.3s-.298-.135-.327-.135c.046-.094.1-.185.16-.272.021-.057.13-.446.13-.446-.168.21-.366.397-.588.555.196-.359.364-.731.503-1.114.092-.354.157-.714.192-1.078.08-.675.203-1.346.37-2.006.119-.329.33-.62.61-.84a2.875 2.875 0 011.398-.484h.057c.503.037.986.205 1.397.484.28.22.492.511.61.84.168.66.291 1.33.37 2.006.031.372.092.74.184 1.103.138.376.31.74.512 1.088a2.94 2.94 0 01-.584-.556c.003.01.14.428.162.485.05.073.093.152.127.234-.028 0-.326.135-.326.135l-1.155.353.017.534c.22.086.412.224.558.402.056.118.124.231.204.336-1.052.417-1.667 1.026-1.692 1.708-.005.035-.06.24-.136.526-.194.724-.528 1.974-.555 2.334z" fill="#C6CDD3"/></svg>