<svg width="16" height="16" fill="none" xmlns="http://www.w3.org/2000/svg"><path fill-rule="evenodd" clip-rule="evenodd" d="M.081 12.656L6.948 5.79c-.407-1.55 0-3.26 1.183-4.443a4.626 4.626 0 016.523 0 4.626 4.626 0 010 6.523c-1.223 1.223-2.894 1.59-4.443 1.183l-1.6 1.598a.277.277 0 01-.173.08l-1.104.092a.277.277 0 00-.24.188l-.276.83a.277.277 0 01-.237.187l-1.755.16a.277.277 0 00-.249.236l-.134.941a.277.277 0 01-.244.236l-1.338.149a.277.277 0 00-.243.231l-.15.944a.277.277 0 01-.328.228l-1.576-.315a.277.277 0 01-.217-.218l-.342-1.713a.277.277 0 01.076-.25zM13.48 4.64c.6-.6.6-1.519 0-2.12-.601-.6-1.52-.6-2.12 0-.6.601-.6 1.52 0 2.12.6.6 1.519.6 2.12 0z" fill="#848B94"/></svg>