<svg width="12" height="16" fill="none" xmlns="http://www.w3.org/2000/svg"><path fill-rule="evenodd" clip-rule="evenodd" d="M6.692 11.726v1.746H5.308v-1.746a1.107 1.107 0 01-.408-.86c0-.611.493-1.107 1.1-1.107.607 0 1.1.495 1.1 1.107 0 .347-.16.657-.408.86zM2.989 4.63a3.02 3.02 0 013.01-3.03 3.02 3.02 0 013.012 3.03v2.561H2.99V4.631zm7.614 2.561V4.631C10.603 2.073 8.542 0 6 0S1.397 2.073 1.397 4.631v2.561H.5a.5.5 0 00-.5.5v7.77a.5.5 0 00.5.5h11a.5.5 0 00.5-.5v-7.77a.5.5 0 00-.5-.5h-.897z" fill="#fff"/></svg>