<svg width="68" height="68" fill="none" xmlns="http://www.w3.org/2000/svg"><path fill-rule="evenodd" clip-rule="evenodd" d="M25.5 34c0-1.174.951-2.125 2.125-2.125h29.75a2.125 2.125 0 010 4.25h-29.75A2.125 2.125 0 0125.5 34zM25.5 17c0-1.174.951-2.125 2.125-2.125h29.75a2.125 2.125 0 010 4.25h-29.75A2.125 2.125 0 0125.5 17zM25.5 51c0-1.174.951-2.125 2.125-2.125h29.75a2.125 2.125 0 010 4.25h-29.75A2.125 2.125 0 0125.5 51zM15.993 12.005A2.125 2.125 0 0117 13.812v14.876a2.125 2.125 0 01-4.25 0V17.25l-1.174.587a2.125 2.125 0 01-1.9-3.801l4.25-2.125a2.125 2.125 0 012.067.093zM14.483 40.338a1.594 1.594 0 00-1.595.992 2.125 2.125 0 11-3.941-1.591 5.844 5.844 0 1110.18 5.575L14.87 51h3.193a2.125 2.125 0 010 4.25h-7.438a2.125 2.125 0 01-1.701-3.398l6.77-9.045a1.594 1.594 0 00-1.211-2.47z" fill="#000"/></svg>