<svg width="64" height="63" fill="none" xmlns="http://www.w3.org/2000/svg"><path fill-rule="evenodd" clip-rule="evenodd" d="M8.375 23.625a3.938 3.938 0 013.938-3.938h39.374a3.938 3.938 0 013.938 3.938v27.563a3.938 3.938 0 01-3.938 3.937H12.313a3.938 3.938 0 01-3.938-3.938V23.625zm43.313 0H12.312v27.563h39.376V23.625z" fill="#FFFEFE"/><path fill-rule="evenodd" clip-rule="evenodd" d="M32 5.906a6.89 6.89 0 00-6.89 6.89v8.86a1.969 1.969 0 11-3.938 0v-8.86a10.828 10.828 0 1121.656 0v8.86a1.969 1.969 0 11-3.937 0v-8.86A6.89 6.89 0 0032 5.907z" fill="#FFFEFE"/><path d="M32 40.36a2.953 2.953 0 100-5.907 2.953 2.953 0 000 5.906z" fill="#FFFEFE"/></svg>