<svg width="51" height="51" fill="none" xmlns="http://www.w3.org/2000/svg"><path fill-rule="evenodd" clip-rule="evenodd" d="M32.238 5.689a3.188 3.188 0 013.497.698l8.878 8.878a3.187 3.187 0 010 4.532L20.252 44.158a1.594 1.594 0 01-1.127.467H9.562a3.188 3.188 0 01-3.187-3.187v-8.903M32.238 5.689c-.388.162-.74.4-1.035.698l1.035-.698zM9.563 32.535v8.903h8.902L42.37 17.53l-.009-.008-8.893-8.894-.009.009L9.562 32.535z" fill="#fff"/><path fill-rule="evenodd" clip-rule="evenodd" d="M17.531 43.031c0-.88.714-1.593 1.594-1.593h23.906a1.594 1.594 0 110 3.187H19.125c-.88 0-1.594-.714-1.594-1.594zM25.967 11.623a1.594 1.594 0 012.254 0l11.156 11.156a1.594 1.594 0 11-2.254 2.254L25.967 13.877a1.594 1.594 0 010-2.254z" fill="#fff"/></svg>