<svg width="40" height="40" fill="none" xmlns="http://www.w3.org/2000/svg"><g clip-path="url(#clip0_84_2947)" fill-rule="evenodd" clip-rule="evenodd" fill="#000"><path d="M20 16.666a3.333 3.333 0 100 6.667 3.333 3.333 0 000-6.667zM13.333 20a6.667 6.667 0 1113.333 0 6.667 6.667 0 01-13.333 0z"/><path d="M20 3.333A1.667 1.667 0 0018.333 5v.29a4.416 4.416 0 01-2.676 4.042c-.141.06-.29.1-.441.12a4.417 4.417 0 01-4.548-1.01l-.013-.013-.1-.1a1.67 1.67 0 00-1.818-.363 1.667 1.667 0 00-.541.362l-.001.001a1.667 1.667 0 000 2.358l.113.114a4.416 4.416 0 01.904 4.824 4.417 4.417 0 01-4.023 2.841H5A1.667 1.667 0 005 21.8h.29a4.416 4.416 0 014.038 2.668 4.417 4.417 0 01-.887 4.864l-.012.013-.1.1a1.67 1.67 0 00-.363 1.818c.084.203.207.386.362.541l.001.002a1.666 1.666 0 002.358 0l.114-.114a4.416 4.416 0 014.824-.904 4.416 4.416 0 012.841 4.023V35a1.667 1.667 0 003.334 0v-.29a4.416 4.416 0 012.669-4.038 4.417 4.417 0 014.863.887l.013.012.1.1a1.672 1.672 0 001.818.363c.203-.084.386-.207.541-.362l.002-.001a1.667 1.667 0 000-2.358l-.114-.114a4.416 4.416 0 01-.887-4.864 4.417 4.417 0 014.038-2.668H35a1.667 1.667 0 000-3.334h-.29a4.416 4.416 0 01-4.042-2.676c-.06-.141-.1-.29-.12-.441a4.417 4.417 0 011.01-4.548l.013-.013.1-.1a1.672 1.672 0 00.363-1.818 1.667 1.667 0 00-.362-.541l-.001-.001a1.667 1.667 0 00-2.358 0l-.114.113a4.416 4.416 0 01-4.864.887 4.417 4.417 0 01-2.668-4.038V5A1.667 1.667 0 0020 3.333zM32.333 25l1.525.673a1.084 1.084 0 00.212 1.19l.091.091a5.004 5.004 0 011.085 5.452 5 5 0 01-1.085 1.623l-1.178-1.179 1.18 1.178a5.003 5.003 0 01-7.075 0l-.092-.091a1.083 1.083 0 00-1.19-.212l-.016.007a1.083 1.083 0 00-.657.989V35a5 5 0 11-10 0v-.126a1.083 1.083 0 00-.708-.976 1.687 1.687 0 01-.098-.04 1.084 1.084 0 00-1.19.212l-.091.091a5.004 5.004 0 01-5.452 1.085 5 5 0 01-2.707-2.706 5 5 0 011.085-5.453l.092-.09a1.083 1.083 0 00.211-1.19l-.007-.017a1.083 1.083 0 00-.989-.657H5a5 5 0 010-10h.126a1.084 1.084 0 00.976-.708l.04-.098a1.083 1.083 0 00-.212-1.19l-.091-.091a5 5 0 011.621-8.16 5 5 0 015.452 1.086l.092.091a1.084 1.084 0 001.19.212c.106-.047.217-.083.331-.106a1.084 1.084 0 00.475-.89V5a5 5 0 0110 0v.146a1.083 1.083 0 00.657.989l.016.007a1.083 1.083 0 001.19-.212l.091-.091a5 5 0 018.16 1.621 5 5 0 01-1.085 5.452l-.093.092a1.084 1.084 0 00-.211 1.19c.047.106.082.217.106.331a1.084 1.084 0 00.89.475H35a5 5 0 110 10h-.146a1.083 1.083 0 00-.989.657L32.333 25z"/></g><defs><clipPath id="clip0_84_2947"><path fill="#fff" d="M0 0h40v40H0z"/></clipPath></defs></svg>