<svg width="16" height="13" fill="none" xmlns="http://www.w3.org/2000/svg"><path fill-rule="evenodd" clip-rule="evenodd" d="M1.396.614H14.85c.347 0 .628.32.628.715 0 .08-.011.16-.034.235l-.407 1.328c-.088.288-.326.48-.594.48H1.8c-.268 0-.507-.193-.594-.481L.802 1.562c-.114-.373.06-.78.389-.91a.56.56 0 01.205-.038zM3.685 5.21h8.877c.342 0 .619.32.619.716 0 .085-.014.17-.04.25l-.43 1.329c-.091.28-.322.464-.58.464H4.092c-.261 0-.495-.19-.583-.476l-.407-1.328c-.115-.372.054-.781.376-.913a.544.544 0 01.207-.042zM6.442 9.81h3.362c.341 0 .618.32.618.715 0 .07-.009.14-.026.206l-.344 1.328c-.079.303-.32.51-.592.51H6.824c-.266 0-.503-.197-.586-.49l-.382-1.328c-.108-.375.068-.78.392-.904a.541.541 0 01.194-.037z" fill="#C6CDD3"/></svg>