<svg width="10" height="10" fill="none" xmlns="http://www.w3.org/2000/svg"><path fill-rule="evenodd" clip-rule="evenodd" d="M6.847 5.411a1.848 1.848 0 01-1.42 1.42A1.88 1.88 0 013.185 4.59c.136-.64.78-1.284 1.42-1.42A1.88 1.88 0 016.846 5.41zm2.787-1.14l-.99-.164a3.736 3.736 0 00-.305-.82.03.03 0 01.003-.034l.622-.77a.437.437 0 00-.013-.567l-.394-.443a.437.437 0 00-.56-.08l-.848.533a3.726 3.726 0 00-1.23-.56.03.03 0 01-.023-.024L5.733.366A.437.437 0 005.302 0h-.594a.436.436 0 00-.43.366l-.164.976a.03.03 0 01-.023.025c-.362.09-.703.234-1.014.421a.03.03 0 01-.034-.001l-.79-.563a.438.438 0 00-.563.046l-.42.42a.437.437 0 00-.046.564l.565.79a.03.03 0 01.001.034c-.185.31-.327.648-.418 1.007a.03.03 0 01-.025.023l-.981.164A.437.437 0 000 4.703v.594c0 .214.155.396.366.431l.981.164a.03.03 0 01.025.023c.074.293.179.574.317.835a.03.03 0 01-.003.033l-.619.766a.437.437 0 00.014.566l.394.443c.142.16.38.194.56.08l.842-.529a.03.03 0 01.034 0c.36.244.765.423 1.2.53l.166.995c.034.211.217.366.431.366h.594a.437.437 0 00.431-.366l.163-.976a.03.03 0 01.023-.025 3.72 3.72 0 001.003-.414.03.03 0 01.033.001l.823.588a.436.436 0 00.563-.047l.42-.42a.436.436 0 00.046-.563l-.586-.821a.03.03 0 01-.001-.034c.186-.31.329-.65.419-1.01a.03.03 0 01.025-.023l.97-.162A.437.437 0 0010 5.297v-.594a.437.437 0 00-.366-.431z" fill="#848B94"/></svg>