<svg width="68" height="68" fill="none" xmlns="http://www.w3.org/2000/svg"><path fill-rule="evenodd" clip-rule="evenodd" d="M8.875 15.595c0-1.156.938-2.094 2.094-2.094h46.063a2.094 2.094 0 110 4.188H10.969a2.094 2.094 0 01-2.094-2.094zM27.719 26.064c1.156 0 2.093.937 2.093 2.094v16.75a2.094 2.094 0 11-4.187 0v-16.75c0-1.157.937-2.094 2.094-2.094zM40.281 26.064c1.157 0 2.094.937 2.094 2.094v16.75a2.094 2.094 0 11-4.188 0v-16.75c0-1.157.938-2.094 2.094-2.094z" fill="#fff"/><path fill-rule="evenodd" clip-rule="evenodd" d="M15.156 13.502c1.157 0 2.094.937 2.094 2.093v39.782h33.5V15.595a2.094 2.094 0 014.188 0v39.782a4.187 4.187 0 01-4.188 4.187h-33.5a4.187 4.187 0 01-4.188-4.188v-39.78c0-1.157.938-2.095 2.094-2.095z" fill="#fff"/><path fill-rule="evenodd" clip-rule="evenodd" d="M23.278 6.967a6.281 6.281 0 014.441-1.84h12.563a6.282 6.282 0 016.281 6.281v4.188a2.094 2.094 0 11-4.188 0v-4.188a2.094 2.094 0 00-2.093-2.094H27.719a2.094 2.094 0 00-2.094 2.094v4.188a2.094 2.094 0 11-4.187 0v-4.188c0-1.666.662-3.263 1.84-4.441z" fill="#fff"/></svg>