<svg width="14" height="11" xmlns="http://www.w3.org/2000/svg"><path fill="#525C69" d="M8.193 4.294s-.102.285-.118.324a.831.831 0 00-.093.156c.021 0 .237.09.237.09l.84.234-.011.356a.996.996 0 00-.407.268c-.04.079-.09.154-.148.224.766.277 1.214.683 1.232 1.137.012.08.477 1.57.504 1.904h3.537c.003-.014-.107-1.94-.107-1.953 0 0-.203-.464-.525-.511a2.738 2.738 0 01-.909-.266 3.559 3.559 0 00-.584-.24.785.785 0 01-.235-.297.991.991 0 00-.406-.267l-.012-.356.84-.235s.217-.09.238-.09a1.408 1.408 0 00-.116-.18c-.016-.039-.095-.298-.095-.298.123.14.267.265.428.37a5.068 5.068 0 01-.367-.742 4.26 4.26 0 01-.14-.717 9.626 9.626 0 00-.27-1.337 1.269 1.269 0 00-.444-.558 2.224 2.224 0 00-1.018-.323h-.043a2.221 2.221 0 00-1.015.323c-.204.146-.357.34-.445.559-.121.44-.211.886-.269 1.336a4.149 4.149 0 01-.133.734c-.101.251-.226.494-.373.725.16-.105.304-.23.427-.37zm1.826 6.276c0-.595-.765-3.112-.765-3.112 0-.368-.55-.788-1.635-1.033a3.962 3.962 0 01-1.036-.412c-.069-.035-.06-.356-.06-.356l-.349-.047c0-.026-.03-.412-.03-.412.419-.122.376-.846.376-.846.265.13.438-.442.438-.442.314-.796-.156-.748-.156-.748.082-.485.082-.979 0-1.464C6.592.087 3.444.524 3.817 1.049c-.92-.148-.71 1.68-.71 1.68l.199.473c-.392.222-.12.49-.106.8.019.457.338.362.338.362.02.753.445.852.445.852.08.473.03.392.03.392l-.379.04a1.15 1.15 0 01-.03.32c-.445.174-.54.275-.982.444-.855.327-1.783.752-1.95 1.325C.508 8.309.02 10.57.02 10.57h10z"/></svg>