<svg width="12" height="10" xmlns="http://www.w3.org/2000/svg"><path d="M10 7.75c0 .138-.047.25-.105.25h-1.79C8.047 8 8 7.888 8 7.75v-.5c0-.138.047-.25.105-.25h1.79c.058 0 .105.112.105.25v.5zm-3 0c0 .138-.141.25-.316.25H1.316C1.14 8 1 7.888 1 7.75v-.5c0-.138.141-.25.316-.25h5.368C6.86 7 7 7.112 7 7.25v.5zM.706 6C.316 6 0 6.448 0 7v2c0 .553.316 1 .706 1h10.588c.39 0 .706-.447.706-1V7c0-.552-.316-1-.706-1H.706zm10.588-1A.71.71 0 0012 4.286S10.272 0 9.882 0H2.118C1.728 0 0 4.286 0 4.286A.71.71 0 00.706 5h10.588z" fill="#525C69" fill-rule="evenodd"/></svg>