<svg width="17" height="18" fill="none" xmlns="http://www.w3.org/2000/svg"><path fill-rule="evenodd" clip-rule="evenodd" d="M12.22 6.17a6.29 6.29 0 00-1.707.234H6.711a.23.23 0 01-.232-.228V1.83a.23.23 0 00-.231-.229H1.851a.23.23 0 00-.231.23V14.18a.23.23 0 00.231.229h4.391c.188.574.456 1.112.791 1.6H.868A.862.862 0 010 15.152V.858C0 .384.388 0 .868 0h6.871c.231 0 .452.091.614.251l4.266 4.217c.217.214.339.505.339.81v.935a6.353 6.353 0 00-.739-.043zM8.098 2.472a.087.087 0 01.148-.06l2.272 2.245a.085.085 0 010 .121.089.089 0 01-.062.025H8.186a.087.087 0 01-.087-.086V2.472z" fill="#fff"/><path d="M3.528 8.005H7.78a6.305 6.305 0 00-1.165 1.601H3.528a.289.289 0 01-.289-.286V8.291c0-.158.13-.286.289-.286zM3.528 11.207h2.53a6.315 6.315 0 00-.115 1.601H3.528a.289.289 0 01-.289-.285v-1.03c0-.159.13-.286.289-.286zM3.587 6.404h.925a.345.345 0 00.347-.344v-.914a.344.344 0 00-.347-.343h-.925a.345.345 0 00-.348.343v.914c0 .19.156.344.348.344z" fill="#fff"/><path fill-rule="evenodd" clip-rule="evenodd" d="M12.22 17.1a4.644 4.644 0 110-9.288 4.644 4.644 0 010 9.288zm.657-7.222h-1.316v1.92h-1.92v1.316h1.92v1.92h1.316v-1.92h1.92v-1.316h-1.92v-1.92z" fill="#fff"/></svg>