<svg width="71" height="71" fill="none" xmlns="http://www.w3.org/2000/svg"><g clip-path="url(#clip0_62_3131)" fill-rule="evenodd" clip-rule="evenodd" fill="#000"><path d="M4.332 45.749a14.792 14.792 0 0110.46-4.333h23.666A14.792 14.792 0 0153.25 56.209v5.917a2.958 2.958 0 11-5.917 0v-5.917a8.875 8.875 0 00-8.875-8.875H14.792a8.875 8.875 0 00-8.875 8.875v5.917a2.958 2.958 0 11-5.917 0v-5.917c0-3.923 1.558-7.685 4.332-10.46zM26.625 11.833a8.875 8.875 0 100 17.75 8.875 8.875 0 000-17.75zm-14.792 8.875c0-8.169 6.623-14.791 14.792-14.791 8.17 0 14.792 6.622 14.792 14.791 0 8.17-6.623 14.792-14.792 14.792-8.17 0-14.792-6.623-14.792-14.792zM56.302 44.02a2.958 2.958 0 013.604-2.125A14.792 14.792 0 0171 56.205v5.92a2.958 2.958 0 01-5.917 0V56.21a8.877 8.877 0 00-6.656-8.586 2.958 2.958 0 01-2.125-3.604zM44.468 8.526a2.958 2.958 0 013.6-2.132 14.792 14.792 0 010 28.659A2.958 2.958 0 1146.6 29.32a8.875 8.875 0 000-17.195 2.958 2.958 0 01-2.133-3.6z"/></g><defs><clipPath id="clip0_62_3131"><path fill="#fff" d="M0 0h71v71H0z"/></clipPath></defs></svg>