<svg xmlns="http://www.w3.org/2000/svg" width="18.121" height="18.121" viewBox="0 0 18.121 18.121">
  <g id="Компонент_268_2" data-name="Компонент 268 – 2" transform="translate(1.061 1.061)">
    <path id="Контур_20364" data-name="Контур 20364" d="M3,3,19,19" transform="translate(-3 -3)" fill="none" stroke="#cfcfcf" stroke-linecap="round" stroke-linejoin="round" stroke-width="1.5"/>
    <path id="Контур_20365" data-name="Контур 20365" d="M10.444,10.677a1.778,1.778,0,0,0,2.509,2.509" transform="translate(-3.777 -3.854)" fill="none" stroke="#cfcfcf" stroke-linecap="round" stroke-linejoin="round" stroke-width="1.5"/>
    <path id="Контур_20366" data-name="Контур 20366" d="M6.877,7.561A20.243,20.243,0,0,0,3,11.507c1.679,2.659,4.695,5.333,8,5.333a7.524,7.524,0,0,0,3.907-1.2" transform="translate(-3 -3.506)" fill="none" stroke="#cfcfcf" stroke-linecap="round" stroke-linejoin="round" stroke-width="1.5"/>
    <path id="Контур_20367" data-name="Контур 20367" d="M12,6c3.563,0,5.957,2.807,8,5.333a13.92,13.92,0,0,1-.958,1.333" transform="translate(-4 -3.334)" fill="none" stroke="#cfcfcf" stroke-linecap="round" stroke-linejoin="round" stroke-width="1.5"/>
  </g>
</svg>
