<svg width="47" height="47" viewBox="0 0 47 47" fill="none" xmlns="http://www.w3.org/2000/svg">
<path fill-rule="evenodd" clip-rule="evenodd" d="M23.5 7.34375C14.5771 7.34375 7.34375 14.5771 7.34375 23.5C7.34375 32.4229 14.5771 39.6562 23.5 39.6562C32.4229 39.6562 39.6562 32.4229 39.6562 23.5C39.6562 14.5771 32.4229 7.34375 23.5 7.34375ZM4.40625 23.5C4.40625 12.9548 12.9548 4.40625 23.5 4.40625C34.0452 4.40625 42.5938 12.9548 42.5938 23.5C42.5938 34.0452 34.0452 42.5938 23.5 42.5938C12.9548 42.5938 4.40625 34.0452 4.40625 23.5Z" fill="black"/>
<path d="M23.5 25.7031C24.7168 25.7031 25.7031 24.7168 25.7031 23.5C25.7031 22.2832 24.7168 21.2969 23.5 21.2969C22.2832 21.2969 21.2969 22.2832 21.2969 23.5C21.2969 24.7168 22.2832 25.7031 23.5 25.7031Z" fill="black"/>
<path d="M23.5 16.8906C24.7168 16.8906 25.7031 15.9043 25.7031 14.6875C25.7031 13.4707 24.7168 12.4844 23.5 12.4844C22.2832 12.4844 21.2969 13.4707 21.2969 14.6875C21.2969 15.9043 22.2832 16.8906 23.5 16.8906Z" fill="black"/>
<path d="M23.5 34.5156C24.7168 34.5156 25.7031 33.5293 25.7031 32.3125C25.7031 31.0957 24.7168 30.1094 23.5 30.1094C22.2832 30.1094 21.2969 31.0957 21.2969 32.3125C21.2969 33.5293 22.2832 34.5156 23.5 34.5156Z" fill="black"/>
</svg>
