<svg width="16" height="16" viewBox="0 0 16 16" fill="none" xmlns="http://www.w3.org/2000/svg">
<path fill-rule="evenodd" clip-rule="evenodd" d="M0.0810644 12.6563L6.94808 5.78928C6.54064 4.23976 6.94808 2.5282 8.13067 1.34561C9.92481 -0.448535 12.8603 -0.448535 14.6544 1.34561C16.4485 3.13975 16.4485 6.07519 14.6544 7.86933C13.4313 9.09243 11.7602 9.45936 10.2107 9.05192L8.61067 10.6505C8.56434 10.6968 8.50307 10.7252 8.43778 10.7306L7.33419 10.8218C7.22379 10.8309 7.12947 10.905 7.09444 11.0101L6.81803 11.8393C6.78326 11.9436 6.69004 12.0175 6.58054 12.0274L4.82611 12.1869C4.69836 12.1985 4.59533 12.2964 4.57719 12.4234L4.44276 13.3644C4.42491 13.4893 4.32479 13.5864 4.19935 13.6003L2.86066 13.749C2.73691 13.7628 2.63757 13.8575 2.61793 13.9804L2.46723 14.9238C2.44312 15.0748 2.30121 15.1776 2.15028 15.1535C2.14674 15.1529 2.14321 15.1523 2.1397 15.1516L0.564149 14.8367C0.454517 14.8148 0.368834 14.7291 0.346972 14.6194L0.00534726 12.9061C-0.0127361 12.8154 0.0156733 12.7217 0.0810644 12.6563ZM13.4798 4.63995C14.0807 4.03912 14.0807 3.121 13.4798 2.52017C12.879 1.91934 11.9609 1.91934 11.36 2.52017C10.7592 3.121 10.7592 4.03912 11.36 4.63995C11.9602 5.24012 12.879 5.24078 13.4798 4.63995Z" fill="#848B94"/>
</svg>
