<svg width="25" height="16" viewBox="0 0 25 16" fill="none" xmlns="http://www.w3.org/2000/svg">
<path d="M18.8409 14.9308C19.0565 14.8918 19.1982 14.685 19.1544 14.4702C18.8586 13.0189 18.2925 10.9376 18.2925 10.9376C18.2925 10.3801 17.5454 9.74293 16.0733 9.37196C15.5733 9.23568 15.0988 9.02511 14.6674 8.74796C14.5982 8.57619 14.5708 8.39165 14.5873 8.2083L14.1155 8.1378C14.1155 8.09826 14.0751 7.51413 14.0751 7.51413C14.6422 7.32831 14.5839 6.23186 14.5839 6.23186C14.944 6.42658 15.1785 5.56009 15.1785 5.56009C15.6045 4.35526 14.9664 4.42774 14.9664 4.42774C15.078 3.69172 15.078 2.94418 14.9664 2.20816C14.6829 -0.232813 10.4114 0.429073 10.918 1.22703C9.66978 1.00168 9.95468 3.7731 9.95468 3.7731L10.2254 4.48968C9.85044 4.72654 9.92389 4.99898 10.006 5.30342C10.0402 5.43049 10.076 5.56315 10.0813 5.7011C10.1075 6.39297 10.5404 6.24933 10.5404 6.24933C10.5673 7.39025 11.1436 7.54015 11.1436 7.54015C11.2519 8.25673 11.1847 8.13318 11.1847 8.13318L10.6714 8.1938C10.6784 8.35664 10.6649 8.51969 10.6311 8.67943C10.333 8.8093 10.1505 8.9123 9.97036 9.014C9.78489 9.11869 9.60187 9.22201 9.2976 9.35186C8.13867 9.84605 6.87901 10.4915 6.6555 11.3586C6.51454 11.9055 6.19718 13.4709 5.98196 14.5528C5.93826 14.7725 6.08377 14.9849 6.3048 15.0213C8.19028 15.3317 10.2102 15.5 12.3109 15.5C14.6075 15.5 16.8075 15.2989 18.8409 14.9308Z" fill="#C6CDD3"/>
<path d="M24.6966 12.5878C24.8749 12.5379 24.9934 12.3705 24.984 12.1856C24.9443 11.4087 24.9007 10.572 24.8998 10.5603C24.8998 10.5603 24.621 9.86393 24.1792 9.79307C23.7404 9.7387 23.3168 9.60331 22.9321 9.39445C22.678 9.25064 22.4099 9.13073 22.1315 9.03642C21.9888 8.91385 21.8783 8.76094 21.8089 8.59005C21.6626 8.41215 21.4702 8.27379 21.2507 8.18862L21.2344 7.65453L22.3887 7.30243C22.3887 7.30243 22.6864 7.16727 22.7155 7.16727C22.6693 7.07312 22.6161 6.98226 22.5563 6.89539C22.5344 6.83858 22.4256 6.44901 22.4256 6.44901C22.5939 6.6591 22.7918 6.84587 23.0138 7.00402C22.8172 6.64539 22.649 6.2732 22.5106 5.89058C22.418 5.53635 22.3536 5.17593 22.3181 4.81242C22.2387 4.13688 22.1153 3.46675 21.9485 2.80592C21.8299 2.47756 21.6186 2.18688 21.338 1.96593C20.9266 1.68707 20.4438 1.51987 19.9409 1.4821H19.8831C19.3802 1.51973 18.8973 1.68694 18.486 1.96593C18.2058 2.18715 17.9947 2.47776 17.8759 2.80592C17.7087 3.46669 17.5851 4.13684 17.506 4.81242C17.4755 5.18408 17.4142 5.55284 17.3226 5.91524C17.1841 6.29109 17.0128 6.65519 16.8105 7.0037C17.0313 6.84477 17.228 6.65748 17.3952 6.44714C17.3952 6.44714 17.2556 6.87447 17.2334 6.9316C17.1826 7.00538 17.1398 7.08393 17.1056 7.16602C17.1344 7.16602 17.4324 7.30118 17.4324 7.30118L18.5864 7.65453L18.5697 8.18862C18.3504 8.27414 18.158 8.41256 18.0115 8.59036C17.956 8.70877 17.8879 8.82142 17.8083 8.92654C18.8596 9.34295 19.4749 9.95258 19.4998 10.6346C19.5046 10.6693 19.5601 10.8767 19.6377 11.167C19.8318 11.8923 20.1642 13.1352 20.1913 13.4945H20.2861C21.8967 13.263 23.381 12.9561 24.6966 12.5878Z" fill="#C6CDD3"/>
<path d="M4.81386 13.4912H4.39512C2.91597 13.2794 1.54287 13.0041 0.308783 12.676C0.127931 12.628 0.006701 12.4593 0.0162199 12.2724C0.0570073 11.4716 0.103969 10.5691 0.104697 10.557C0.104697 10.557 0.383456 9.86055 0.825288 9.78969C1.2641 9.73532 1.68766 9.59994 2.07235 9.39108C2.32648 9.24727 2.59462 9.12736 2.87301 9.03304C3.01569 8.91048 3.12619 8.75757 3.19556 8.58667C3.34191 8.40878 3.5343 8.27042 3.75373 8.18525L3.7704 7.65116L2.61614 7.29905C2.61614 7.29905 2.31843 7.16389 2.28934 7.16389C2.33542 7.06976 2.3885 6.9789 2.44817 6.89201C2.47006 6.8352 2.57889 6.44564 2.57889 6.44564C2.41061 6.65572 2.21265 6.8425 1.99065 7.00064C2.18726 6.64201 2.35548 6.26982 2.49392 5.8872C2.5865 5.53297 2.65084 5.17255 2.6864 4.80904C2.76573 4.13351 2.88917 3.46337 3.05601 2.80255C3.17464 2.47419 3.38589 2.18351 3.66647 1.96255C4.07785 1.68369 4.56064 1.51649 5.06354 1.47872H5.12138C5.62431 1.51636 6.10713 1.68357 6.51844 1.96255C6.79866 2.18377 7.00974 2.47438 7.12858 2.80255C7.2958 3.46331 7.41936 4.13346 7.49851 4.80904C7.52899 5.1807 7.59029 5.54947 7.68185 5.91186C7.82041 6.28771 7.99171 6.65181 8.19394 7.00033C7.97345 6.84149 7.77696 6.65437 7.61 6.44424C7.61314 6.45383 7.74975 6.87206 7.77172 6.92853C7.82253 7.00233 7.86535 7.08087 7.89949 7.16296C7.87074 7.16296 7.5727 7.29812 7.5727 7.29812L6.41844 7.65116L6.43511 8.18525C6.65443 8.27076 6.84676 8.40918 6.99328 8.58698C7.0488 8.7054 7.11692 8.81805 7.19655 8.92317C6.14524 9.33957 5.52988 9.9492 5.50537 10.6312C5.50046 10.6657 5.44574 10.8702 5.36901 11.1571C5.17522 11.8814 4.84102 13.1307 4.81386 13.4912Z" fill="#C6CDD3"/>
</svg>
