<svg width="68" height="68" viewBox="0 0 68 68" fill="none" xmlns="http://www.w3.org/2000/svg">
<path fill-rule="evenodd" clip-rule="evenodd" d="M25.5 34C25.5 32.8264 26.4514 31.875 27.625 31.875H57.375C58.5486 31.875 59.5 32.8264 59.5 34C59.5 35.1736 58.5486 36.125 57.375 36.125H27.625C26.4514 36.125 25.5 35.1736 25.5 34Z" fill="black"/>
<path fill-rule="evenodd" clip-rule="evenodd" d="M25.5 17C25.5 15.8264 26.4514 14.875 27.625 14.875H57.375C58.5486 14.875 59.5 15.8264 59.5 17C59.5 18.1736 58.5486 19.125 57.375 19.125H27.625C26.4514 19.125 25.5 18.1736 25.5 17Z" fill="black"/>
<path fill-rule="evenodd" clip-rule="evenodd" d="M25.5 51C25.5 49.8264 26.4514 48.875 27.625 48.875H57.375C58.5486 48.875 59.5 49.8264 59.5 51C59.5 52.1736 58.5486 53.125 57.375 53.125H27.625C26.4514 53.125 25.5 52.1736 25.5 51Z" fill="black"/>
<path fill-rule="evenodd" clip-rule="evenodd" d="M15.9926 12.0049C16.6191 12.3921 17.0005 13.076 17.0005 13.8125V28.6875C17.0005 29.8611 16.0491 30.8125 14.8755 30.8125C13.7019 30.8125 12.7505 29.8611 12.7505 28.6875V17.2508L11.5758 17.8382C10.5261 18.363 9.24966 17.9375 8.72481 16.8878C8.19996 15.8381 8.62543 14.5617 9.67514 14.0368L13.9251 11.9118C14.5839 11.5825 15.3662 11.6177 15.9926 12.0049Z" fill="black"/>
<path fill-rule="evenodd" clip-rule="evenodd" d="M14.483 40.3378C14.2595 40.3213 14.0351 40.3521 13.8243 40.4282C13.6135 40.5042 13.4211 40.6239 13.2597 40.7794C13.0983 40.9349 12.9715 41.1226 12.8876 41.3304C12.4481 42.4187 11.2097 42.9446 10.1215 42.5051C9.03324 42.0656 8.50734 40.8272 8.94682 39.7389C9.25452 38.977 9.71946 38.2886 10.3113 37.7185C10.9031 37.1484 11.6085 36.7096 12.3814 36.4306C13.1543 36.1516 13.9773 36.0388 14.7968 36.0994C15.6163 36.1601 16.4137 36.3929 17.1371 36.7827C17.8605 37.1724 18.4936 37.7104 18.995 38.3613C19.4964 39.0123 19.8549 39.7618 20.0471 40.5607C20.2392 41.3596 20.2608 42.1901 20.1102 42.9979C19.9597 43.8057 19.6404 44.5727 19.1734 45.2488C19.1581 45.2709 19.1423 45.2928 19.1262 45.3144L14.87 51.0003H18.0625C19.2361 51.0003 20.1875 51.9517 20.1875 53.1253C20.1875 54.2989 19.2361 55.2503 18.0625 55.2503H10.625C9.82048 55.2503 9.08493 54.796 8.7248 54.0765C8.36466 53.3571 8.4417 52.496 8.92382 51.8519L15.6946 42.8066C15.8122 42.6288 15.893 42.4291 15.9321 42.2192C15.9732 41.9989 15.9673 41.7724 15.9149 41.5546C15.8625 41.3367 15.7648 41.1323 15.628 40.9547C15.4913 40.7772 15.3186 40.6305 15.1213 40.5242C14.924 40.4179 14.7065 40.3544 14.483 40.3378Z" fill="black"/>
</svg>
