<svg width="45" height="33" viewBox="0 0 45 33" fill="none" xmlns="http://www.w3.org/2000/svg">
<path d="M12.8637 28.3944L15.0571 30.5877C15.2439 30.7746 15.4951 30.8788 15.7586 30.8788C16.022 30.8788 16.2732 30.7746 16.4601 30.5877L18.6534 28.3944C19.0425 28.0053 19.0425 27.3774 18.6534 26.9914C18.4605 26.7984 18.2062 26.7004 17.9519 26.7004C17.6977 26.7004 17.4434 26.7984 17.2504 26.9914L16.7389 27.503V20.0728C16.7389 19.5306 16.3008 19.0925 15.7586 19.0925C15.2164 19.0925 14.7783 19.5306 14.7783 20.0728V27.503L14.2667 26.9914C13.8777 26.6023 13.2497 26.6023 12.8637 26.9914C12.4747 27.3804 12.4747 28.0084 12.8637 28.3944Z" fill="#6B6C7E"/>
<path d="M12.3782 12.1477L10.1811 9.95435C9.99391 9.76748 9.74229 9.66333 9.47839 9.66333C9.21449 9.66333 8.96287 9.76748 8.77568 9.95435L6.57857 12.1477C6.18886 12.5368 6.18886 13.1647 6.57857 13.5507C6.77189 13.7437 7.02658 13.8417 7.28128 13.8417C7.53597 13.8417 7.79066 13.7437 7.98399 13.5507L8.49644 13.0391V20.4693C8.49644 21.0115 8.93525 21.4496 9.47839 21.4496C10.0215 21.4496 10.4603 21.0115 10.4603 20.4693V13.0391L10.9728 13.5507C11.3625 13.9398 11.9916 13.9398 12.3782 13.5507C12.7679 13.1617 12.7679 12.5337 12.3782 12.1477Z" fill="#6B6C7E"/>
</svg>
