<svg width="40" height="40" viewBox="0 0 40 40" fill="none" xmlns="http://www.w3.org/2000/svg">
<g clip-path="url(#clip0_84_2947)">
<path fill-rule="evenodd" clip-rule="evenodd" d="M19.9997 16.6663C18.1587 16.6663 16.6663 18.1587 16.6663 19.9997C16.6663 21.8406 18.1587 23.333 19.9997 23.333C21.8406 23.333 23.333 21.8406 23.333 19.9997C23.333 18.1587 21.8406 16.6663 19.9997 16.6663ZM13.333 19.9997C13.333 16.3178 16.3178 13.333 19.9997 13.333C23.6816 13.333 26.6663 16.3178 26.6663 19.9997C26.6663 23.6816 23.6816 26.6663 19.9997 26.6663C16.3178 26.6663 13.333 23.6816 13.333 19.9997Z" fill="black"/>
<path fill-rule="evenodd" clip-rule="evenodd" d="M20 3.33333C19.558 3.33333 19.1341 3.50893 18.8215 3.82149C18.5089 4.13405 18.3333 4.55797 18.3333 5V5.28998C18.3299 6.15133 18.0747 6.99287 17.5991 7.71102C17.1235 8.42917 16.4483 8.99258 15.6566 9.3319C15.5156 9.3923 15.3674 9.43282 15.216 9.45261C14.4966 9.70453 13.7222 9.76663 12.9683 9.62993C12.1 9.47249 11.2987 9.05853 10.6679 8.44144L10.6547 8.42858L10.5548 8.32851C10.4 8.17355 10.2156 8.04996 10.0132 7.96609C9.8109 7.88222 9.59403 7.83904 9.375 7.83904C9.15597 7.83904 8.9391 7.88222 8.73677 7.96609C8.53444 8.04996 8.35062 8.17289 8.19583 8.32786L8.19452 8.32917C8.03956 8.48395 7.91663 8.66777 7.83276 8.8701C7.74888 9.07243 7.70571 9.28931 7.70571 9.50833C7.70571 9.72736 7.74888 9.94424 7.83276 10.1466C7.91663 10.3489 8.03956 10.5327 8.19452 10.6875L8.30818 10.8012C8.92527 11.432 9.33916 12.2333 9.4966 13.1017C9.65091 13.9527 9.55188 14.8299 9.21242 15.6246C8.90315 16.4355 8.36163 17.1378 7.65508 17.6431C6.93424 18.1587 6.07497 18.4455 5.18897 18.4662L5.15 18.4667H5C4.55797 18.4667 4.13405 18.6423 3.82149 18.9548C3.50893 19.2674 3.33333 19.6913 3.33333 20.1333C3.33333 20.5754 3.50893 20.9993 3.82149 21.3118C4.13405 21.6244 4.55797 21.8 5 21.8H5.28998C6.15133 21.8034 6.99287 22.0587 7.71102 22.5343C8.42668 23.0082 8.98867 23.6804 9.32835 24.4685C9.6818 25.2738 9.78685 26.1663 9.62993 27.0317C9.47249 27.9 9.05853 28.7012 8.44144 29.3321L8.42858 29.3453L8.32851 29.4452C8.17355 29.6 8.04996 29.7844 7.96609 29.9868C7.88222 30.1891 7.83904 30.406 7.83904 30.625C7.83904 30.844 7.88222 31.0609 7.96609 31.2632C8.04996 31.4656 8.1729 31.6494 8.32786 31.8042L8.32917 31.8055C8.48395 31.9604 8.66777 32.0834 8.8701 32.1672C9.07243 32.2511 9.28931 32.2943 9.50833 32.2943C9.72736 32.2943 9.94423 32.2511 10.1466 32.1672C10.3489 32.0834 10.5327 31.9604 10.6875 31.8055L10.8012 31.6918C11.432 31.0747 12.2333 30.6608 13.1017 30.5034C13.9527 30.3491 14.8299 30.4481 15.6246 30.7876C16.4355 31.0968 17.1378 31.6384 17.6431 32.3449C18.1587 33.0658 18.4455 33.925 18.4662 34.811L18.4667 34.85V35C18.4667 35.442 18.6423 35.8659 18.9548 36.1785C19.2674 36.4911 19.6913 36.6667 20.1333 36.6667C20.5754 36.6667 20.9993 36.4911 21.3118 36.1785C21.6244 35.8659 21.8 35.442 21.8 35V34.7167L21.8 34.71C21.8034 33.8487 22.0587 33.0071 22.5343 32.289C23.0083 31.5733 23.6805 31.0112 24.4687 30.6716C25.2739 30.3182 26.1663 30.2132 27.0317 30.3701C27.9 30.5275 28.7012 30.9415 29.3321 31.5586L29.3452 31.5714L29.4452 31.6715C29.6 31.8264 29.7844 31.95 29.9868 32.0339C30.1891 32.1178 30.406 32.161 30.625 32.161C30.844 32.161 31.0609 32.1178 31.2632 32.0339C31.4656 31.95 31.6494 31.8271 31.8042 31.6721L31.8055 31.6708C31.9604 31.516 32.0834 31.3322 32.1672 31.1299C32.2511 30.9276 32.2943 30.7107 32.2943 30.4917C32.2943 30.2726 32.2511 30.0558 32.1672 29.8534C32.0834 29.6511 31.9604 29.4673 31.8055 29.3125L31.6918 29.1988C31.0747 28.568 30.6608 27.7667 30.5034 26.8983C30.3465 26.033 30.4515 25.1406 30.8049 24.3354C31.1446 23.5472 31.7066 22.8749 32.4223 22.4009C33.1405 21.9253 33.982 21.6701 34.8434 21.6667L34.85 21.6667L35 21.6667C35.442 21.6667 35.8659 21.4911 36.1785 21.1785C36.4911 20.8659 36.6667 20.442 36.6667 20C36.6667 19.558 36.4911 19.1341 36.1785 18.8215C35.8659 18.5089 35.442 18.3333 35 18.3333H34.7167L34.71 18.3333C33.8487 18.3299 33.0071 18.0747 32.289 17.5991C31.5708 17.1235 31.0074 16.4483 30.6681 15.6566C30.6077 15.5156 30.5672 15.3674 30.5474 15.216C30.2955 14.4966 30.2334 13.7222 30.3701 12.9683C30.5275 12.1 30.9415 11.2988 31.5586 10.6679L31.5714 10.6548L31.6715 10.5548C31.8264 10.4 31.95 10.2156 32.0339 10.0132C32.1178 9.8109 32.161 9.59402 32.161 9.375C32.161 9.15598 32.1178 8.9391 32.0339 8.73677C31.95 8.53444 31.8271 8.35062 31.6721 8.19583L31.6708 8.19452C31.516 8.03956 31.3322 7.91663 31.1299 7.83276C30.9276 7.74888 30.7107 7.70571 30.4917 7.70571C30.2726 7.70571 30.0558 7.74888 29.8534 7.83276C29.6511 7.91663 29.4673 8.03956 29.3125 8.19452L29.1988 8.30818C28.568 8.92527 27.7667 9.33916 26.8983 9.4966C26.0329 9.65352 25.1404 9.54847 24.3352 9.19502C23.5471 8.85533 22.8749 8.29335 22.4009 7.57769C21.9253 6.85954 21.6701 6.018 21.6667 5.15665L21.6667 5.15V5C21.6667 4.55797 21.4911 4.13405 21.1785 3.82149C20.8659 3.50893 20.442 3.33333 20 3.33333ZM32.3333 25L33.8581 25.6729C33.7707 25.871 33.7446 26.0906 33.7832 26.3036C33.8214 26.5143 33.9212 26.7088 34.0698 26.8628L34.1612 26.9542C34.161 26.954 34.1614 26.9544 34.1612 26.9542C34.6258 27.4184 34.995 27.9703 35.2465 28.577C35.4981 29.184 35.6276 29.8346 35.6276 30.4917C35.6276 31.1487 35.4981 31.7994 35.2465 32.4064C34.9949 33.0134 34.6261 33.5648 34.1612 34.0292L32.9833 32.85L34.1625 34.0279C33.6981 34.4927 33.1467 34.8615 32.5397 35.1132C31.9327 35.3648 31.2821 35.4943 30.625 35.4943C29.9679 35.4943 29.3173 35.3648 28.7103 35.1132C28.1036 34.8616 27.5524 34.4931 27.0882 34.0285C27.0879 34.0283 27.0884 34.0287 27.0882 34.0285L26.9961 33.9365C26.8422 33.7878 26.6476 33.6881 26.437 33.6499C26.224 33.6113 26.0043 33.6374 25.8063 33.7248L25.7899 33.732C25.5957 33.8152 25.4301 33.9533 25.3134 34.1295C25.1972 34.3049 25.1347 34.5104 25.1333 34.7208V35C25.1333 36.3261 24.6065 37.5979 23.6689 38.5355C22.7312 39.4732 21.4594 40 20.1333 40C18.8072 40 17.5355 39.4732 16.5978 38.5355C15.6601 37.5979 15.1333 36.3261 15.1333 35V34.8739C15.1254 34.6619 15.0554 34.4568 14.9319 34.2841C14.8054 34.1073 14.6287 33.9726 14.4247 33.8976C14.3917 33.8854 14.3592 33.8723 14.3271 33.8581C14.129 33.7707 13.9094 33.7446 13.6964 33.7832C13.4857 33.8215 13.2911 33.9212 13.1372 34.0699L13.0458 34.1612C13.0456 34.1614 13.046 34.161 13.0458 34.1612C12.5816 34.6258 12.0297 34.995 11.423 35.2465C10.816 35.4981 10.1654 35.6276 9.50833 35.6276C8.85125 35.6276 8.20062 35.4981 7.59363 35.2465C6.98722 34.9951 6.43624 34.6268 5.97214 34.1625C5.50726 33.6981 5.13847 33.1467 4.88685 32.5397C4.63522 31.9327 4.50571 31.2821 4.50571 30.625C4.50571 29.9679 4.63522 29.3173 4.88685 28.7103C5.13847 28.1033 5.50726 27.5519 5.97214 27.0875L6.06352 26.9961C6.21214 26.8422 6.31188 26.6476 6.35008 26.437C6.3887 26.224 6.36263 26.0043 6.27523 25.8063L6.26801 25.7899C6.18478 25.5957 6.04668 25.4301 5.87053 25.3134C5.69507 25.1972 5.48957 25.1347 5.27916 25.1333H5C3.67392 25.1333 2.40215 24.6065 1.46447 23.6689C0.526785 22.7312 0 21.4594 0 20.1333C0 18.8073 0.526785 17.5355 1.46447 16.5978C2.40215 15.6601 3.67392 15.1333 5 15.1333H5.12606C5.33806 15.1254 5.54319 15.0554 5.71592 14.9319C5.89273 14.8054 6.0274 14.6287 6.10244 14.4247C6.11456 14.3917 6.12772 14.3592 6.1419 14.3271C6.22929 14.129 6.25537 13.9094 6.21675 13.6964C6.17855 13.4857 6.0788 13.2911 5.93016 13.1372L5.83881 13.0458C5.37393 12.5815 5.00513 12.03 4.75351 11.423C4.50189 10.816 4.37238 10.1654 4.37238 9.50833C4.37238 8.85126 4.50189 8.20062 4.75351 7.59363C5.00502 6.98693 5.37358 6.43572 5.83816 5.97149C6.30238 5.50692 6.85359 5.13835 7.4603 4.88685C8.06729 4.63522 8.71792 4.50571 9.375 4.50571C10.0321 4.50571 10.6827 4.63522 11.2897 4.88685C11.8967 5.13847 12.4481 5.50726 12.9125 5.97214L13.0038 6.06349C13.1578 6.21213 13.3524 6.31188 13.563 6.35008C13.776 6.3887 13.9957 6.36263 14.1937 6.27523C14.3005 6.22812 14.4115 6.19248 14.5251 6.1687C14.6413 6.08983 14.7416 5.98872 14.8199 5.87053C14.9361 5.69507 14.9987 5.48957 15 5.27916V5C15 3.67392 15.5268 2.40215 16.4645 1.46447C17.4021 0.526785 18.6739 0 20 0C21.3261 0 22.5979 0.526785 23.5355 1.46447C24.4732 2.40215 25 3.67392 25 5V5.14583C25.0013 5.35624 25.0639 5.56173 25.1801 5.73719C25.2967 5.91334 25.4624 6.05154 25.6566 6.13477L25.673 6.14181C25.871 6.22921 26.0906 6.25537 26.3036 6.21675C26.5143 6.17855 26.7088 6.07881 26.8628 5.93018L26.9542 5.83881C27.4185 5.37393 27.97 5.00513 28.577 4.75351C29.184 4.50189 29.8346 4.37238 30.4917 4.37238C31.1487 4.37238 31.7994 4.50189 32.4064 4.75351C33.0134 5.00513 33.5648 5.37393 34.0292 5.83881C34.4934 6.3029 34.8618 6.85388 35.1132 7.4603C35.3648 8.06729 35.4943 8.71792 35.4943 9.375C35.4943 10.0321 35.3648 10.6827 35.1132 11.2897C34.8617 11.8964 34.4931 12.4476 34.0285 12.9118C34.0283 12.9121 34.0287 12.9116 34.0285 12.9118L33.9365 13.0038C33.7879 13.1578 33.6881 13.3524 33.6499 13.563C33.6113 13.776 33.6374 13.9957 33.7248 14.1937C33.7719 14.3005 33.8075 14.4115 33.8313 14.5251C33.9102 14.6413 34.0113 14.7416 34.1295 14.8199C34.3049 14.9361 34.5104 14.9987 34.7208 15H35C36.3261 15 37.5979 15.5268 38.5355 16.4645C39.4732 17.4021 40 18.6739 40 20C40 21.3261 39.4732 22.5979 38.5355 23.5355C37.5979 24.4732 36.3261 25 35 25H34.8542C34.6438 25.0013 34.4383 25.0639 34.2628 25.1801C34.0867 25.2967 33.9485 25.4624 33.8652 25.6566L32.3333 25Z" fill="black"/>
</g>
<defs>
<clipPath id="clip0_84_2947">
<rect width="40" height="40" fill="white"/>
</clipPath>
</defs>
</svg>
