<svg width="10" height="10" viewBox="0 0 10 10" fill="none" xmlns="http://www.w3.org/2000/svg">
<path fill-rule="evenodd" clip-rule="evenodd" d="M6.84683 5.41134C6.69574 6.12161 6.13719 6.68017 5.42695 6.83122C4.07283 7.11921 2.89652 5.94252 3.18456 4.58865C3.32078 3.94845 3.96408 3.30509 4.60425 3.16884C5.95811 2.88067 7.13488 4.05711 6.84683 5.41134ZM9.63408 4.27185L8.64351 4.10659C8.57313 3.81887 8.47125 3.54355 8.33901 3.2862C8.33345 3.27537 8.33474 3.26234 8.34238 3.25287L8.96396 2.48215C9.09883 2.31596 9.09271 2.07687 8.95052 1.91649L8.55654 1.47309C8.41373 1.31287 8.17692 1.27899 7.99627 1.39312L7.14913 1.92566C6.78188 1.66908 6.36658 1.47862 5.91876 1.3664C5.90688 1.36342 5.89788 1.35372 5.89585 1.34163L5.73344 0.365605C5.69866 0.154729 5.51618 0 5.30197 0H4.70826C4.49448 0 4.31138 0.154729 4.27737 0.365605L4.11406 1.34199C4.11203 1.35406 4.10304 1.36372 4.09118 1.36669C3.72878 1.45752 3.38838 1.60086 3.07655 1.78828C3.06604 1.7946 3.05284 1.79413 3.04286 1.787L2.25363 1.22375C2.08001 1.0997 1.84152 1.1191 1.68999 1.2703L1.27056 1.69005C1.11935 1.84157 1.09995 2.08007 1.22433 2.25371L1.78891 3.04451C1.79603 3.05448 1.79652 3.06768 1.79022 3.07819C1.60462 3.3876 1.46277 3.72598 1.37203 4.08509C1.36903 4.09695 1.35938 4.10592 1.34732 4.10793L0.365583 4.27187C0.155033 4.30664 0 4.48915 0 4.70337V5.29663C0 5.51084 0.155033 5.69336 0.365583 5.72813L1.34729 5.89206C1.35936 5.89408 1.36903 5.90306 1.37202 5.91494C1.44583 6.20813 1.55096 6.48858 1.68917 6.74965C1.69492 6.76053 1.69371 6.77376 1.68597 6.78335L1.06746 7.5494C0.93305 7.71543 0.938692 7.95468 1.08089 8.11491L1.47456 8.55833C1.61738 8.71884 1.85433 8.75211 2.03498 8.63827L2.87734 8.10911C2.88767 8.10261 2.90083 8.10288 2.91093 8.10972C3.27045 8.35268 3.67603 8.5316 4.11074 8.63827L4.27738 9.63437C4.31139 9.84526 4.49448 10 4.70826 10H5.30197C5.51618 10 5.69866 9.84527 5.73344 9.63438L5.89613 8.65817C5.89815 8.64609 5.90716 8.63641 5.91903 8.63344C6.27676 8.54387 6.61273 8.40305 6.92162 8.21894C6.93213 8.21268 6.94527 8.21317 6.95522 8.22028L7.77808 8.80798C7.9514 8.93248 8.19006 8.91295 8.34142 8.76126L8.76104 8.34165C8.91207 8.19059 8.93252 7.95222 8.8071 7.77827L8.22133 6.95696C8.21421 6.94699 8.21373 6.93381 8.22003 6.92331C8.40617 6.61285 8.54878 6.27382 8.63902 5.91309C8.64198 5.90121 8.65166 5.8922 8.66373 5.89018L9.63442 5.7281C9.84559 5.69332 10 5.51081 10 5.2966V4.70334C9.99968 4.48915 9.84527 4.30664 9.63408 4.27185Z" fill="#848B94"/>
</svg>
