<svg width="22" height="29" viewBox="0 0 22 29" fill="none" xmlns="http://www.w3.org/2000/svg">
<path d="M11.6727 8.13018C11.2912 7.78343 10.7087 7.78343 10.3273 8.13018L1.36547 16.2773C0.689144 16.8921 1.12411 18.0172 2.03814 18.0172H8.01694V27.7182C8.01694 28.2705 8.46465 28.7182 9.01694 28.7182H12.983C13.5353 28.7182 13.983 28.2705 13.983 27.7182V18.0172H19.9618C20.8759 18.0172 21.3108 16.8921 20.6345 16.2773L11.6727 8.13018Z" fill="#2FC6F6"/>
<path d="M0 2C0 0.89543 0.895431 0 2 0H20C21.1046 0 22 0.895431 22 2V3C22 4.10457 21.1046 5 20 5H2C0.89543 5 0 4.10457 0 3V2Z" fill="#2FC6F6"/>
</svg>
