<svg width="15" height="14" viewBox="0 0 15 14" fill="none" xmlns="http://www.w3.org/2000/svg">
<path opacity="0.8" fill-rule="evenodd" clip-rule="evenodd" d="M0.5 2C0.5 0.89543 1.39543 0 2.5 0H12.5C13.6046 0 14.5 0.895431 14.5 2V12C14.5 13.1046 13.6046 14 12.5 14H2.5C1.39543 14 0.5 13.1046 0.5 12V2Z" fill="#80868E"/>
<path fill-rule="evenodd" clip-rule="evenodd" d="M6.62265 10.4861C6.41238 10.4902 6.20142 10.4139 6.03872 10.2568L3.6461 7.94624C3.3247 7.63587 3.31361 7.10999 3.63116 6.78116C3.95093 6.45003 4.47026 6.4408 4.79606 6.75542L6.58778 8.48567L10.4213 4.51595C10.7419 4.18399 11.2617 4.17919 11.5905 4.49674C11.9216 4.81651 11.929 5.33775 11.6121 5.66591L7.20243 10.2323C7.04304 10.3973 6.83439 10.4815 6.62446 10.4854L6.62265 10.4861Z" fill="white"/>
</svg>
