<svg width="65" height="65" viewBox="0 0 65 65" fill="none" xmlns="http://www.w3.org/2000/svg">
<path fill-rule="evenodd" clip-rule="evenodd" d="M11.2589 7.41657C12.0149 6.66056 13.0402 6.23584 14.1094 6.23584H38.2969C38.8315 6.23584 39.3441 6.4482 39.7221 6.8262L53.8315 20.9356C54.2095 21.3136 54.4219 21.8263 54.4219 22.3608V54.6108C54.4219 55.68 53.9972 56.7054 53.2412 57.4614C52.4851 58.2174 51.4598 58.6421 50.3906 58.6421H14.1094C13.0402 58.6421 12.0149 58.2174 11.2589 57.4614C10.5028 56.7054 10.0781 55.68 10.0781 54.6108V10.2671C10.0781 9.19793 10.5028 8.17257 11.2589 7.41657ZM37.462 10.2671L14.1094 10.2671L14.1094 54.6108H50.3906V23.1957L37.462 10.2671Z" fill="white"/>
<path fill-rule="evenodd" clip-rule="evenodd" d="M38.2969 6.23584C39.4101 6.23584 40.3125 7.13827 40.3125 8.25146V20.3452H52.4062C53.5194 20.3452 54.4219 21.2476 54.4219 22.3608C54.4219 23.474 53.5194 24.3765 52.4062 24.3765H38.2969C37.1837 24.3765 36.2812 23.474 36.2812 22.3608V8.25146C36.2812 7.13827 37.1837 6.23584 38.2969 6.23584Z" fill="white"/>
<path fill-rule="evenodd" clip-rule="evenodd" d="M24.1875 38.4858C24.1875 37.3726 25.0899 36.4702 26.2031 36.4702H38.2969C39.4101 36.4702 40.3125 37.3726 40.3125 38.4858C40.3125 39.599 39.4101 40.5015 38.2969 40.5015H26.2031C25.0899 40.5015 24.1875 39.599 24.1875 38.4858Z" fill="white"/>
<path fill-rule="evenodd" clip-rule="evenodd" d="M32.25 30.4233C33.3632 30.4233 34.2656 31.3258 34.2656 32.439V44.5327C34.2656 45.6459 33.3632 46.5483 32.25 46.5483C31.1368 46.5483 30.2344 45.6459 30.2344 44.5327V32.439C30.2344 31.3258 31.1368 30.4233 32.25 30.4233Z" fill="white"/>
</svg>
