<svg width="16" height="16" viewBox="0 0 16 16" fill="none" xmlns="http://www.w3.org/2000/svg">
<path d="M14.4791 0.259293C14.1339 -0.0859215 13.5742 -0.0859213 13.229 0.259292L8.00019 5.48811L2.771 0.25891C2.42578 -0.0863033 1.86608 -0.0863036 1.52087 0.25891L0.259292 1.52049C-0.085921 1.8657 -0.0859215 2.4254 0.259292 2.77061L5.48849 7.99981L0.25891 13.2294C-0.0863031 13.5746 -0.0863037 14.1343 0.25891 14.4795L1.52049 15.7411C1.8657 16.0863 2.4254 16.0863 2.77061 15.7411L8.00019 10.5115L13.2294 15.7407C13.5746 16.0859 14.1343 16.0859 14.4795 15.7407L15.7411 14.4791C16.0863 14.1339 16.0863 13.5742 15.7411 13.229L10.5119 7.99981L15.7407 2.771C16.0859 2.42578 16.0859 1.86608 15.7407 1.52087L14.4791 0.259293Z" fill="#D5D7DB"/>
</svg>
