<svg width="24" height="24" viewBox="0 0 24 24" fill="none" xmlns="http://www.w3.org/2000/svg">
<path d="M17.9355 16.734C17.9355 17.0101 18.1593 17.234 18.4355 17.234L19.5494 17.234C19.8255 17.234 20.0494 17.0101 20.0494 16.734L20.0494 9.43705L22.7166 9.43705C22.8948 9.43705 22.984 9.22162 22.858 9.09562L19.3491 5.58669C19.1538 5.39143 18.8373 5.39143 18.642 5.58669L15.1331 9.09562C15.0071 9.22162 15.0963 9.43704 15.2745 9.43704L17.9355 9.43705L17.9355 16.734Z" fill="#525C69"/>
<path d="M3 7.5C3 7.22386 3.22386 7 3.5 7H12.5C12.7761 7 13 7.22386 13 7.5V9.5C13 9.77614 12.7761 10 12.5 10H3.5C3.22386 10 3 9.77614 3 9.5V7.5Z" fill="#525C69"/>
<rect x="3" y="13" width="10" height="3" rx="0.5" fill="#525C69"/>
</svg>
