<svg width="24" height="24" viewBox="0 0 24 24" fill="none" xmlns="http://www.w3.org/2000/svg">
<path opacity="0.5" fill-rule="evenodd" clip-rule="evenodd" d="M13.681 15.3795C12.8029 15.9444 11.7577 16.2721 10.636 16.2721C7.52334 16.2721 5 13.7487 5 10.636C5 7.52334 7.52334 5 10.636 5C13.7487 5 16.2721 7.52334 16.2721 10.636C16.2721 11.7577 15.9444 12.8029 15.3795 13.681C15.4097 13.7049 15.4387 13.7307 15.4666 13.7586L19.6469 17.9389C20.0374 18.3294 20.0374 18.9626 19.6469 19.3531L19.3531 19.6469C18.9626 20.0374 18.3294 20.0374 17.9389 19.6469L13.7586 15.4666C13.7307 15.4387 13.7049 15.4097 13.681 15.3795ZM14.6618 10.636C14.6618 12.8594 12.8594 14.6618 10.636 14.6618C8.41268 14.6618 6.6103 12.8594 6.6103 10.636C6.6103 8.41268 8.41268 6.6103 10.636 6.6103C12.8594 6.6103 14.6618 8.41268 14.6618 10.636Z" fill="#979797"/>
</svg>
