<svg width="16" height="13" viewBox="0 0 16 13" fill="none" xmlns="http://www.w3.org/2000/svg">
<path fill-rule="evenodd" clip-rule="evenodd" d="M1.3958 0.61377H14.8508C15.1981 0.61377 15.4795 0.933969 15.4795 1.32896C15.4795 1.40903 15.4677 1.48853 15.4446 1.56414L15.0381 2.89236C14.9501 3.17978 14.7118 3.37239 14.4443 3.37239H1.79905C1.53091 3.37239 1.29228 3.17895 1.20476 2.89065L0.801503 1.56243C0.688157 1.18907 0.862334 0.781891 1.19056 0.652944C1.25658 0.627012 1.32595 0.61377 1.3958 0.61377ZM3.68451 5.21147H12.5621C12.9037 5.21147 13.1807 5.53162 13.1807 5.9266C13.1807 6.01241 13.1673 6.09749 13.1413 6.17777L12.7105 7.50602C12.62 7.78509 12.3892 7.97009 12.1313 7.97009H4.09238C3.83051 7.97009 3.59701 7.77945 3.50941 7.4941L3.10156 6.16596C2.98726 5.79365 3.1556 5.38477 3.47756 5.25265C3.54401 5.22537 3.614 5.21147 3.68451 5.21147ZM6.44249 9.80917H9.8041C10.1454 9.80917 10.4221 10.1294 10.4221 10.5244C10.4221 10.594 10.4133 10.6632 10.396 10.7298L10.0518 12.058C9.97338 12.3606 9.73285 12.5678 9.45995 12.5678H6.82392C6.55781 12.5678 6.32147 12.3706 6.23753 12.0782L5.85607 10.75C5.74843 10.3752 5.9237 9.97034 6.24753 9.84575C6.31038 9.82151 6.37624 9.80917 6.44249 9.80917Z" fill="#C6CDD3"/>
</svg>
