<svg width="71" height="71" viewBox="0 0 71 71" fill="none" xmlns="http://www.w3.org/2000/svg">
<g clip-path="url(#clip0_62_3131)">
<path fill-rule="evenodd" clip-rule="evenodd" d="M4.33238 45.7489C7.10635 42.9749 10.8687 41.4165 14.7917 41.4165H38.4583C42.3813 41.4165 46.1436 42.9749 48.9176 45.7489C51.6916 48.5229 53.25 52.2852 53.25 56.2082V62.1248C53.25 63.7587 51.9255 65.0832 50.2917 65.0832C48.6578 65.0832 47.3333 63.7587 47.3333 62.1248V56.2082C47.3333 53.8544 46.3983 51.597 44.7339 49.9326C43.0695 48.2682 40.8121 47.3332 38.4583 47.3332H14.7917C12.4379 47.3332 10.1805 48.2682 8.51609 49.9326C6.85171 51.597 5.91667 53.8544 5.91667 56.2082V62.1248C5.91667 63.7587 4.59218 65.0832 2.95833 65.0832C1.32449 65.0832 0 63.7587 0 62.1248V56.2082C0 52.2852 1.5584 48.5229 4.33238 45.7489Z" fill="black"/>
<path fill-rule="evenodd" clip-rule="evenodd" d="M26.625 11.8332C21.7235 11.8332 17.75 15.8066 17.75 20.7082C17.75 25.6097 21.7235 29.5832 26.625 29.5832C31.5265 29.5832 35.5 25.6097 35.5 20.7082C35.5 15.8066 31.5265 11.8332 26.625 11.8332ZM11.8333 20.7082C11.8333 12.539 18.4558 5.9165 26.625 5.9165C34.7942 5.9165 41.4167 12.539 41.4167 20.7082C41.4167 28.8774 34.7942 35.4998 26.625 35.4998C18.4558 35.4998 11.8333 28.8774 11.8333 20.7082Z" fill="black"/>
<path fill-rule="evenodd" clip-rule="evenodd" d="M56.3023 44.0198C56.7107 42.4378 58.3243 41.4865 59.9062 41.8949C63.0795 42.7143 65.8909 44.5643 67.8988 47.1545C69.9067 49.7448 70.9975 52.9285 71 56.2059L71 62.1248C71 63.7586 69.6755 65.0831 68.0417 65.0831C66.4078 65.0831 65.0833 63.7586 65.0833 62.1248L65.0833 56.2103C65.0833 56.21 65.0833 56.2106 65.0833 56.2103C65.0817 54.2442 64.4272 52.3334 63.2226 50.7795C62.0178 49.2254 60.3311 48.1153 58.4271 47.6237C56.8451 47.2153 55.8938 45.6017 56.3023 44.0198Z" fill="black"/>
<path fill-rule="evenodd" clip-rule="evenodd" d="M44.4675 8.52604C44.8727 6.94326 46.4843 5.98868 48.0671 6.39394C51.2489 7.2086 54.069 9.05903 56.0829 11.6535C58.0968 14.248 59.1899 17.439 59.1899 20.7234C59.1899 24.0077 58.0968 27.1987 56.0829 29.7932C54.069 32.3877 51.2489 34.2381 48.0671 35.0528C46.4843 35.4581 44.8727 34.5035 44.4675 32.9207C44.0622 31.3379 45.0168 29.7263 46.5996 29.321C48.5086 28.8322 50.2007 27.722 51.409 26.1653C52.6173 24.6086 53.2732 22.694 53.2732 20.7234C53.2732 18.7527 52.6173 16.8382 51.409 15.2815C50.2007 13.7248 48.5086 12.6145 46.5996 12.1257C45.0168 11.7205 44.0622 10.1088 44.4675 8.52604Z" fill="black"/>
</g>
<defs>
<clipPath id="clip0_62_3131">
<rect width="71" height="71" fill="white"/>
</clipPath>
</defs>
</svg>
