<svg width="58" height="58" viewBox="0 0 58 58" fill="none" xmlns="http://www.w3.org/2000/svg">
<path fill-rule="evenodd" clip-rule="evenodd" d="M19.4066 7.78087C20.1145 8.48869 20.1145 9.63631 19.4066 10.3441L9.81326 19.9375L19.4066 29.5309C20.1145 30.2387 20.1145 31.3863 19.4066 32.0941C18.6988 32.802 17.5512 32.802 16.8434 32.0941L5.96837 21.2191C5.26054 20.5113 5.26054 19.3637 5.96837 18.6559L16.8434 7.78087C17.5512 7.07304 18.6988 7.07304 19.4066 7.78087Z" fill="black"/>
<path fill-rule="evenodd" clip-rule="evenodd" d="M5.4375 19.9375C5.4375 18.9365 6.24898 18.125 7.25 18.125H38.0625C41.9081 18.125 45.5963 19.6527 48.3155 22.372C51.0348 25.0912 52.5625 28.7794 52.5625 32.625C52.5625 36.4706 51.0348 40.1588 48.3155 42.878C45.5963 45.5973 41.9081 47.125 38.0625 47.125H18.125C17.124 47.125 16.3125 46.3135 16.3125 45.3125C16.3125 44.3115 17.124 43.5 18.125 43.5H38.0625C40.9467 43.5 43.7128 42.3542 45.7523 40.3148C47.7917 38.2753 48.9375 35.5092 48.9375 32.625C48.9375 29.7408 47.7917 26.9747 45.7523 24.9352C43.7128 22.8958 40.9467 21.75 38.0625 21.75H7.25C6.24898 21.75 5.4375 20.9385 5.4375 19.9375Z" fill="black"/>
</svg>
