<svg width="47" height="98" viewBox="0 0 47 98" fill="none" xmlns="http://www.w3.org/2000/svg">
<path d="M23.6249 42.6716C25.3081 42.6716 26.6728 41.307 26.6728 39.6238C26.6728 37.9405 25.3081 36.5759 23.6249 36.5759C21.9418 36.5759 20.5771 37.9405 20.5771 39.6238C20.5771 41.307 21.9418 42.6716 23.6249 42.6716Z" fill="#6B6C7E"/>
<path d="M26.6728 48.7435C26.6728 50.4268 25.3081 51.7914 23.6249 51.7914C21.9418 51.7914 20.5771 50.4268 20.5771 48.7435C20.5771 47.0602 21.9418 45.6957 23.6249 45.6957C25.3081 45.6957 26.6728 47.0602 26.6728 48.7435Z" fill="#6B6C7E"/>
<path d="M26.6728 57.9109C26.6728 59.5941 25.3081 60.9587 23.6249 60.9587C21.9418 60.9587 20.5771 59.5941 20.5771 57.9109C20.5771 56.2276 21.9418 54.863 23.6249 54.863C25.3081 54.863 26.6728 56.2276 26.6728 57.9109Z" fill="#6B6C7E"/>
</svg>
