<svg width="10" height="10" viewBox="0 0 10 10" fill="none" xmlns="http://www.w3.org/2000/svg">
<path fill-rule="evenodd" clip-rule="evenodd" d="M0.777146 4.53087L2.65438 6.40748C3.69047 7.44417 5.37126 7.44417 6.40752 6.40748C6.57075 6.24471 6.69844 6.06131 6.81058 5.87218L5.93834 5C5.89687 4.95819 5.84567 4.93423 5.79675 4.906C5.73644 5.11203 5.63118 5.30707 5.46915 5.46912C4.95172 5.98696 4.10976 5.98624 3.59264 5.46912L1.71599 3.59255C1.19817 3.07477 1.19817 2.23301 1.71599 1.71563C2.23314 1.19824 3.07488 1.19824 3.59264 1.71563L4.25997 2.38368C4.80151 2.17282 5.38496 2.11612 5.95293 2.19936L4.5309 0.777372C3.4942 -0.259124 1.81384 -0.259124 0.777146 0.777372C-0.259049 1.81382 -0.259049 3.49444 0.777146 4.53087ZM5.73973 7.61666L6.40754 8.28471C6.92493 8.80183 7.76693 8.80183 8.28441 8.28471C8.80184 7.76687 8.80184 6.92511 8.28441 6.40748L6.40754 4.53087C5.88974 4.01313 5.0483 4.01313 4.53092 4.53087C4.36926 4.69256 4.26389 4.88756 4.20302 5.09332C4.15381 5.06472 4.10324 5.04149 4.0618 4.99998L3.18962 4.12816C3.30104 3.93828 3.42939 3.75553 3.59268 3.59259C4.62868 2.55609 6.30963 2.55609 7.34613 3.59259L9.22271 5.46923C10.2591 6.50603 10.2591 8.18616 9.22271 9.22287C8.18621 10.259 6.50565 10.259 5.46917 9.22287L4.04677 7.80058C4.61505 7.8843 5.19864 7.82712 5.73973 7.61666Z" fill="#848B94"/>
</svg>
