<svg width="79" height="79" viewBox="0 0 79 79" fill="none" xmlns="http://www.w3.org/2000/svg">
<path fill-rule="evenodd" clip-rule="evenodd" d="M8.85241 16.2587C9.77837 15.3327 11.0342 14.8125 12.3438 14.8125H28.802C29.863 14.8169 30.8947 15.1608 31.7462 15.7939L31.752 15.7983L40.3251 22.2127C40.3249 22.2125 40.3253 22.2128 40.3251 22.2127C40.33 22.2161 40.3363 22.2185 40.3423 22.2188H66.6562C67.9658 22.2188 69.2216 22.7389 70.1476 23.6649C71.0736 24.5909 71.5938 25.8467 71.5938 27.1562V61.9965C71.5938 63.2323 71.1028 64.4176 70.2289 65.2914C69.3551 66.1653 68.1698 66.6562 66.934 66.6562H12.3438C11.0342 66.6562 9.77837 66.1361 8.85241 65.2101C7.92645 64.2841 7.40625 63.0283 7.40625 61.7188V19.75C7.40625 18.4405 7.92645 17.1846 8.85241 16.2587ZM28.7827 19.75L12.3438 19.75L12.3438 61.7188H66.6562V27.1562H40.3231C39.262 27.1519 38.2303 26.8079 37.3788 26.1748L37.373 26.1705L28.7999 19.7561C28.7997 19.7559 28.8001 19.7562 28.7999 19.7561C28.795 19.7526 28.7886 19.7502 28.7827 19.75Z" fill="black"/>
<path fill-rule="evenodd" clip-rule="evenodd" d="M29.625 44.4375C29.625 43.074 30.7303 41.9688 32.0938 41.9688H46.9062C48.2697 41.9688 49.375 43.074 49.375 44.4375C49.375 45.801 48.2697 46.9062 46.9062 46.9062H32.0938C30.7303 46.9062 29.625 45.801 29.625 44.4375Z" fill="black"/>
<path fill-rule="evenodd" clip-rule="evenodd" d="M39.5 34.5625C40.8635 34.5625 41.9688 35.6678 41.9688 37.0312V51.8438C41.9688 53.2072 40.8635 54.3125 39.5 54.3125C38.1365 54.3125 37.0312 53.2072 37.0312 51.8438V37.0312C37.0312 35.6678 38.1365 34.5625 39.5 34.5625Z" fill="black"/>
</svg>
