<svg width="25" height="26" viewBox="0 0 25 26" fill="none" xmlns="http://www.w3.org/2000/svg">
<path fill-rule="evenodd" clip-rule="evenodd" d="M12.753 21.2406C17.3298 21.2406 21.0401 17.5304 21.0401 12.9536C21.0401 8.37675 17.3298 4.6665 12.753 4.6665C8.55041 4.6665 5.07848 7.7948 4.5388 11.8498H1.04175L5.66479 16.4728L10.2878 11.8498H6.64872C7.16941 8.951 9.70433 6.75137 12.753 6.75137C16.1784 6.75137 18.9552 9.52819 18.9552 12.9536C18.9552 16.3789 16.1784 19.1558 12.753 19.1558C12.5961 19.1558 12.4406 19.1499 12.2867 19.1385V21.2277C12.441 21.2363 12.5965 21.2406 12.753 21.2406ZM13.6499 9.68437H11.5665V14.8927H13.1165H13.6499H16.1912V12.8711H13.6499V9.68437Z" fill="#C6CDD3"/>
</svg>
