<svg width="10" height="10" viewBox="0 0 10 10" fill="none" xmlns="http://www.w3.org/2000/svg">
<path d="M4.77232 2.46351C4.97589 2.67323 4.83171 3.03182 4.54382 3.03182H2.92741L2.92741 8.90207C2.92741 9.08593 2.78273 9.23498 2.60426 9.23498H2.11388C1.93541 9.23498 1.79074 9.08593 1.79074 8.90207L1.79074 3.03182H0.323793C0.035901 3.03182 -0.108275 2.67323 0.0952953 2.46351L2.20531 0.289739C2.3315 0.159729 2.53611 0.159729 2.66231 0.289739L4.77232 2.46351Z" fill="#848B94"/>
<path d="M7.30094 0.294769C7.12247 0.294769 6.9778 0.443818 6.9778 0.62768L6.9778 6.96803H5.45618C5.16829 6.96803 5.02411 7.32662 5.22768 7.53634L7.33769 9.71011C7.46389 9.84012 7.6685 9.84012 7.79469 9.71011L9.90471 7.53634C10.1083 7.32662 9.9641 6.96803 9.67621 6.96803H8.11446V0.62768C8.11446 0.443818 7.96979 0.294769 7.79132 0.294769H7.30094Z" fill="#848B94"/>
</svg>
