<svg width="64" height="63" viewBox="0 0 64 63" fill="none" xmlns="http://www.w3.org/2000/svg">
<path fill-rule="evenodd" clip-rule="evenodd" d="M8.375 23.625C8.375 21.4504 10.1379 19.6875 12.3125 19.6875H51.6875C53.8621 19.6875 55.625 21.4504 55.625 23.625V51.1875C55.625 53.3621 53.8621 55.125 51.6875 55.125H12.3125C10.1379 55.125 8.375 53.3621 8.375 51.1875V23.625ZM51.6875 23.625H12.3125V51.1875H51.6875V23.625Z" fill="#FFFEFE"/>
<path fill-rule="evenodd" clip-rule="evenodd" d="M32 5.90625C30.1725 5.90625 28.4198 6.63222 27.1276 7.92447C25.8354 9.21671 25.1094 10.9694 25.1094 12.7969V21.6562C25.1094 22.7436 24.2279 23.625 23.1406 23.625C22.0533 23.625 21.1719 22.7436 21.1719 21.6562V12.7969C21.1719 9.92508 22.3127 7.1709 24.3434 5.14023C26.374 3.10957 29.1282 1.96875 32 1.96875C34.8718 1.96875 37.626 3.10957 39.6566 5.14023C41.6873 7.1709 42.8281 9.92508 42.8281 12.7969V21.6562C42.8281 22.7436 41.9467 23.625 40.8594 23.625C39.7721 23.625 38.8906 22.7436 38.8906 21.6562V12.7969C38.8906 10.9694 38.1646 9.21671 36.8724 7.92447C35.5802 6.63222 33.8275 5.90625 32 5.90625Z" fill="#FFFEFE"/>
<path d="M32 40.3594C33.631 40.3594 34.9531 39.0372 34.9531 37.4062C34.9531 35.7753 33.631 34.4531 32 34.4531C30.369 34.4531 29.0469 35.7753 29.0469 37.4062C29.0469 39.0372 30.369 40.3594 32 40.3594Z" fill="#FFFEFE"/>
</svg>
