<svg width="51" height="51" viewBox="0 0 51 51" fill="none" xmlns="http://www.w3.org/2000/svg">
<path fill-rule="evenodd" clip-rule="evenodd" d="M32.2377 5.68873C32.6276 5.52548 33.0461 5.44141 33.4687 5.44141C33.8914 5.44141 34.3099 5.52548 34.6998 5.68873C35.0874 5.85103 35.4391 6.08837 35.7346 6.38707L44.613 15.2654C44.9117 15.5609 45.149 15.9126 45.3113 16.3003C45.4746 16.6901 45.5587 17.1086 45.5587 17.5313C45.5587 17.954 45.4746 18.3725 45.3113 18.7624C45.149 19.15 44.9117 19.5017 44.613 19.7972L20.252 44.1583C19.9531 44.4572 19.5477 44.6251 19.125 44.6251H9.5625C8.71712 44.6251 7.90637 44.2892 7.3086 43.6915C6.71082 43.0937 6.375 42.2829 6.375 41.4376V32.5348M32.2377 5.68873C31.85 5.85106 31.4983 6.08844 31.2027 6.38721L32.2377 5.68873ZM9.5625 32.5352V41.4376H18.4648L42.3711 17.5313L42.3625 17.5228L33.4687 8.62894L33.4602 8.6376L9.5625 32.5352Z" fill="white"/>
<path fill-rule="evenodd" clip-rule="evenodd" d="M17.5312 43.0312C17.5312 42.151 18.2448 41.4375 19.125 41.4375H43.0312C43.9115 41.4375 44.625 42.151 44.625 43.0312C44.625 43.9115 43.9115 44.625 43.0312 44.625H19.125C18.2448 44.625 17.5312 43.9115 17.5312 43.0312Z" fill="white"/>
<path fill-rule="evenodd" clip-rule="evenodd" d="M25.9668 11.623C26.5892 11.0007 27.5983 11.0007 28.2207 11.623L39.377 22.7793C39.9994 23.4017 39.9994 24.4108 39.377 25.0332C38.7546 25.6556 37.7454 25.6556 37.123 25.0332L25.9668 13.877C25.3444 13.2546 25.3444 12.2454 25.9668 11.623Z" fill="white"/>
</svg>
