<svg width="16" height="13" viewBox="0 0 16 13" fill="none" xmlns="http://www.w3.org/2000/svg">
<path fill-rule="evenodd" clip-rule="evenodd" d="M1.39581 0.11377H14.8508C15.1981 0.11377 15.4796 0.433969 15.4796 0.828964C15.4796 0.909027 15.4678 0.988526 15.4446 1.06414L15.0381 2.39236C14.9501 2.67978 14.7118 2.87239 14.4443 2.87239H1.79906C1.53093 2.87239 1.2923 2.67895 1.20478 2.39065L0.801518 1.06243C0.688172 0.689074 0.86235 0.281891 1.19057 0.152944C1.2566 0.127012 1.32596 0.11377 1.39581 0.11377ZM3.68453 4.71147H12.5621C12.9037 4.71147 13.1807 5.03162 13.1807 5.4266C13.1807 5.51241 13.1673 5.59749 13.1413 5.67777L12.7105 7.00602C12.62 7.28509 12.3892 7.47009 12.1313 7.47009H4.09239C3.83052 7.47009 3.59703 7.27945 3.50942 6.9941L3.10157 5.66596C2.98727 5.29365 3.15561 4.88477 3.47757 4.75265C3.54403 4.72537 3.61401 4.71147 3.68453 4.71147ZM6.4425 9.30917H9.80412C10.1454 9.30917 10.4221 9.62942 10.4221 10.0244C10.4221 10.094 10.4133 10.1632 10.396 10.2298L10.0518 11.558C9.9734 11.8606 9.73287 12.0678 9.45996 12.0678H6.82393C6.55782 12.0678 6.32149 11.8706 6.23755 11.5782L5.85609 10.25C5.74845 9.87515 5.92371 9.47034 6.24754 9.34575C6.3104 9.32151 6.37625 9.30917 6.4425 9.30917Z" fill="#525C69"/>
</svg>
