<svg width="68" height="68" viewBox="0 0 68 68" fill="none" xmlns="http://www.w3.org/2000/svg">
<path fill-rule="evenodd" clip-rule="evenodd" d="M8.87549 15.5952C8.87549 14.4389 9.81289 13.5015 10.9692 13.5015H57.0317C58.1881 13.5015 59.1255 14.4389 59.1255 15.5952C59.1255 16.7516 58.1881 17.689 57.0317 17.689H10.9692C9.81289 17.689 8.87549 16.7516 8.87549 15.5952Z" fill="white"/>
<path fill-rule="evenodd" clip-rule="evenodd" d="M27.7188 26.064C28.8751 26.064 29.8125 27.0014 29.8125 28.1577V44.9077C29.8125 46.0641 28.8751 47.0015 27.7188 47.0015C26.5624 47.0015 25.625 46.0641 25.625 44.9077V28.1577C25.625 27.0014 26.5624 26.064 27.7188 26.064Z" fill="white"/>
<path fill-rule="evenodd" clip-rule="evenodd" d="M40.2812 26.064C41.4376 26.064 42.375 27.0014 42.375 28.1577V44.9077C42.375 46.0641 41.4376 47.0015 40.2812 47.0015C39.1249 47.0015 38.1875 46.0641 38.1875 44.9077V28.1577C38.1875 27.0014 39.1249 26.064 40.2812 26.064Z" fill="white"/>
<path fill-rule="evenodd" clip-rule="evenodd" d="M15.1562 13.5015C16.3126 13.5015 17.25 14.4389 17.25 15.5952V55.3765H50.75V15.5952C50.75 14.4389 51.6874 13.5015 52.8438 13.5015C54.0001 13.5015 54.9375 14.4389 54.9375 15.5952V55.3765C54.9375 56.4871 54.4963 57.5522 53.711 58.3375C52.9257 59.1228 51.8606 59.564 50.75 59.564H17.25C16.1394 59.564 15.0743 59.1228 14.289 58.3375C13.5037 57.5522 13.0625 56.4871 13.0625 55.3765V15.5952C13.0625 14.4389 13.9999 13.5015 15.1562 13.5015Z" fill="white"/>
<path fill-rule="evenodd" clip-rule="evenodd" d="M23.2777 6.96669C24.4557 5.78873 26.0533 5.12695 27.7192 5.12695H40.2817C41.9476 5.12695 43.5453 5.78873 44.7233 6.96669C45.9012 8.14465 46.563 9.74231 46.563 11.4082V15.5957C46.563 16.7521 45.6256 17.6895 44.4692 17.6895C43.3129 17.6895 42.3755 16.7521 42.3755 15.5957V11.4082C42.3755 10.8529 42.1549 10.3204 41.7622 9.9277C41.3696 9.53504 40.837 9.31445 40.2817 9.31445H27.7192C27.1639 9.31445 26.6314 9.53504 26.2387 9.9277C25.8461 10.3204 25.6255 10.8529 25.6255 11.4082V15.5957C25.6255 16.7521 24.6881 17.6895 23.5317 17.6895C22.3754 17.6895 21.438 16.7521 21.438 15.5957V11.4082C21.438 9.74231 22.0998 8.14465 23.2777 6.96669Z" fill="white"/>
</svg>
