<svg width="17" height="18" viewBox="0 0 17 18" fill="none" xmlns="http://www.w3.org/2000/svg">
<path fill-rule="evenodd" clip-rule="evenodd" d="M12.2193 6.17021C11.628 6.17021 11.0558 6.25185 10.5133 6.40449H6.711C6.583 6.40449 6.479 6.30249 6.479 6.17649V1.83049C6.479 1.70449 6.376 1.60149 6.248 1.60149H1.851C1.723 1.60149 1.62 1.70449 1.62 1.83049V14.1795C1.62 14.3065 1.723 14.4085 1.851 14.4085H6.24247C6.43002 14.983 6.69809 15.5211 7.03336 16.0095H0.868C0.388 16.0095 0 15.6255 0 15.1525V0.858488C0 0.384488 0.388 0.000488281 0.868 0.000488281H7.739C7.97 0.000488281 8.191 0.0914883 8.353 0.251488L12.619 4.46849C12.836 4.68249 12.958 4.97349 12.958 5.27749V6.21315C12.7157 6.18479 12.4692 6.17021 12.2193 6.17021ZM8.099 2.47249C8.099 2.42649 8.138 2.38749 8.186 2.38749C8.209 2.38749 8.231 2.39649 8.247 2.41249L10.519 4.65749C10.553 4.69049 10.553 4.74449 10.519 4.77849C10.502 4.79449 10.481 4.80349 10.457 4.80349H8.186C8.138 4.80349 8.099 4.76449 8.099 4.71749V2.47249Z" fill="white"/>
<path d="M3.528 8.00549H7.78034C7.31251 8.4721 6.91782 9.01199 6.61493 9.60649H3.528C3.369 9.60649 3.239 9.47749 3.239 9.32049V8.29149C3.239 8.13349 3.369 8.00549 3.528 8.00549Z" fill="white"/>
<path d="M3.528 11.2075H6.05741C5.97607 11.6111 5.93339 12.0286 5.93339 12.4562C5.93339 12.5744 5.93666 12.6919 5.9431 12.8085H3.528C3.369 12.8085 3.239 12.6795 3.239 12.5225V11.4925C3.239 11.3345 3.369 11.2075 3.528 11.2075Z" fill="white"/>
<path d="M3.587 6.40449H4.512C4.704 6.40449 4.859 6.25049 4.859 6.06049V5.14649C4.859 4.95649 4.704 4.80349 4.512 4.80349H3.587C3.395 4.80349 3.239 4.95649 3.239 5.14649V6.06049C3.239 6.25049 3.395 6.40449 3.587 6.40449Z" fill="white"/>
<path fill-rule="evenodd" clip-rule="evenodd" d="M12.2193 17.1C9.65456 17.1 7.57544 15.0208 7.57544 12.4561C7.57544 9.89138 9.65456 7.81226 12.2193 7.81226C14.784 7.81226 16.8631 9.89138 16.8631 12.4561C16.8631 15.0208 14.784 17.1 12.2193 17.1ZM12.877 9.8783H11.5615V11.7983H9.64148V13.1139H11.5615V15.0339H12.877V13.1139H14.7971V11.7983H12.877V9.8783Z" fill="white"/>
</svg>
